<svg fill="#00bc8c" xmlns="http://www.w3.org/2000/svg" viewBox="0 0 338.234 338.234" style="enable-background:new 0 0 338.234 338.234" xml:space="preserve"><path d="M289.907 70.398c20.551-11.21 24.203-13.379 24.125-15.549-.018-.487-.257-1.166-1.296-1.639-2.043-.93-4.01-1.481-5.913-2.014-3.904-1.094-7.276-2.039-10.483-5.884-1.515-1.816-3.19-5.116-5.13-8.937-6.14-12.093-15.419-30.368-35.404-35.173A42.886 42.886 0 0 0 245.819 0c-12.257 0-23.432 5.395-32.315 15.601-9.916 11.393-16.38 27.889-19.213 49.032-3.556 26.537-42.166 76.738-65.234 106.733-7.831 10.182-14.017 18.224-16.415 22.217-8.857 14.743-25.584 34.13-39.025 49.708-15.501 17.967-23.576 27.509-23.246 31.08.065.704.411 1.118.69 1.341.385.308.888.464 1.496.464 4.94 0 21.448-12.124 36.73-24.104-10.402 10.931-23.707 25.778-36.707 40.287-4.024 4.491-7.98 8.905-11.752 13.093-11.723 13.017-18.132 24.048-16.326 28.104.458 1.028 1.393 1.595 2.632 1.595 3.332 0 8.409-4.028 12.082-7.408 6.64-6.111 10.544-8.385 12.035-8.495-.004.455-.375 1.779-2.126 4.342-3.955 5.787-5.545 10.701-4.255 13.145.51.967 1.432 1.5 2.595 1.5 2.449 0 5.959-2.402 9.885-6.758 10.59-11.749 46.677-45.226 64.02-61.312 4.808-4.46 8.038-7.463 8.834-8.244.229-.081 1.017-.245 3.72-.245 2.097 0 4.952.053 8.258.149 5.062.148 11.361.27 18.48.27h.006c3.367 0 6.649-.047 9.865-.133.149 3.07-.095 6.791-1.18 7.6-.1.074-.245.166-.434.287-1.243.796-4.155 2.662-8.612 7.718-1.786 2.026-3.755 4.793-2.997 6.472.273.604.855.964 1.558.964.848 0 1.87-.523 2.875-1.472 7.321-6.906 16.732-10.867 25.82-10.867 1.375 0 2.75.093 4.088.276 6.108.836 7.203 1.308 9.19 2.164.909.392 2.04.878 3.886 1.498.829.277 1.574-.159 1.718-.927.345-1.843-3.449-6.933-6.55-8.136-2.834-1.1-6.013-1.657-9.446-1.657-3.584 0-6.753.585-9.067 1.013-1.058.196-1.987.367-2.558.4-.083-1.309-.042-3.839.009-5.658 13.413-.703 25.416-2.22 36.051-4.577 7.512 4.517 14.442 8.799 15.146 9.566.333.453-.217 2.537-.619 4.059-.499 1.889-1.063 4.029-1.198 6.267-.182 3.016.872 5.597 1.928 6.718.473.502.972.756 1.484.756.355 0 1.521-.152 1.639-2.114.173-2.882 4.284-12.004 7.5-14.99 5.245-4.868 9.782-5.318 16.604-5.062 5.505.206 9.673 1.614 11.676 2.291.863.292 1.257.425 1.594.425.402 0 .756-.198.946-.53l.269-.593-.292-.5c-.685-1.175-4.476-5.904-10.507-7.565-3.481-.959-6.728-1.445-9.649-1.445-5.626 0-9.029 1.729-11.514 2.991-1.368.696-2.371 1.23-3.168 1.077-1.156-.226-4.804-2.165-9.259-4.731 13.639-4.382 24.52-10.496 32.798-18.398 41.914-40.009 39.871-88.999 30.776-123.104-2.477-9.288-5.682-16.022-8.021-20.938-4.958-10.419-6.454-13.563 6.89-20.842zM158.867 284z"/></svg>
