<?xml version="1.0" encoding="iso-8859-1"?>
<!-- Generator: Adobe Illustrator 22.1.0, SVG Export Plug-In . SVG Version: 6.00 Build 0)  -->
<svg version="1.1" id="Layer_1" xmlns="http://www.w3.org/2000/svg" xmlns:xlink="http://www.w3.org/1999/xlink" x="0px" y="0px"
	 width="500px" height="500px" viewBox="0 0 500 500" enable-background="new 0 0 500 500" xml:space="preserve">
<g id="Layer_2_1_">
	<g>
		<path fill="#e5e5e5" d="M40.656,418.554c-0.949,0.542-1.492,0.746-1.492,0.746C39.706,419.13,40.181,418.859,40.656,418.554z"/>
		<path fill="#e5e5e5" d="M167.418,333.186c0-0.644-0.102-2.204-2.577-2.102c-2.475,0.102-4.306,2.373-5.221,2.204
			c-0.915-0.17-1.288-1.187-1.458-2.746c-0.17-1.56-0.746-3.492-4.78-6.442c-4.034-2.95-10.849-10.646-11.222-9.934
			c-0.373,0.746,1.288,2.678,1.288,2.678s-2.034-1.458-1.932,0c0.102,1.458,4.679,4.136,4.679,4.136s-5.797-2.204-6.34-1.458
			c-0.542,0.746,1.187,1.729,1.017,2.577c-0.17,0.814,2.848,3.865,3.322,5.052c0.475,1.187,0.915,2.034,1.831,2.577
			c0.915,0.542,2.848,4.611,3.119,5.696c0.271,1.119,1.288,1.458,1.288,1.458s-2.17,1.899-3.39,2.102
			c-1.254,0.237-6.238-0.034-7.594,0.102c-1.322,0.136-0.678,1.424-0.678,1.424s-0.949,1.153,0.746,1.458
			c1.695,0.305,4.543-0.169,5.933-0.169c1.39,0,1.288,0.102,2.746,0.305c1.458,0.237,3.899,0.644,7.289-0.271
			s5.865-1.831,7.73-4.102c1.831-2.238,2.238-2.712,3.255-3.187c1.017-0.475,1.966,0.271,2.102-0.136
			C168.706,334,167.418,333.831,167.418,333.186z"/>
		<path fill="#e5e5e5" d="M332.491,254.464c-2.102-0.305-4.407,1.661-5.357,1.661c-0.949,0-1.458-0.271-1.424-0.848
			c0.068-0.576,1.729-1.593,1.729-2.746c0-1.153-18.613,1.966-19.189,2.373c-0.576,0.373-0.068,0.78,0.78,1.153
			c0.848,0.373,2.882,0.644,3.017,0.881c0.136,0.271-0.848,3.322-1.153,3.594c-0.305,0.271-4.238,1.966-5.831,3.085
			c-0.237,0.169-0.542,0.305-0.915,0.441c-0.068-0.848-0.237-1.661-0.475-2.238c-0.576-1.39-0.814-2.644-0.881-2.916
			c0.203,0.373,2.678,2.611,2.271,1.526c-0.441-1.153-1.695-2.577-1.695-2.577s2.509,2.339,2.712,1.899
			c0.203-0.441-5.357-6.814-6.306-8.137c-0.949-1.322-1.085-1.695-1.085-1.695s0.814-1.322,1.526-1.627
			c0.678-0.305,1.831-0.136,1.831-0.136l-0.678-1.017c0,0-0.305-1.695-1.831-1.831s-2.509,1.187-3.526,1.39
			c-1.017,0.203-1.39-0.441-4.543,1.017c-3.153,1.458-6.509,4.034-8.781,4.17c-2.272,0.136-4.373,0.237-4.373,0.237
			s-0.949-0.237-0.509,0.576s-1.39,1.254-1.254,2.068c0.136,0.814-0.441,1.187,0.237,1.763c0.678,0.576,1.254,0.881,2.339,0.373
			c1.085-0.509,2.577-1.763,3.526-1.763c0.949,0,5.052-0.644,5.424,0c0.373,0.644,2.916,3.017,3.865,4.306
			c0.949,1.254,1.763,2.271,1.831,1.593c0.068-0.678,0.881,2.068,1.187,1.39c0.305-0.678,0.305-1.085,0.305-1.085
			s0.881,2.882,1.085,2.305c0.203-0.542,0.203-1.356,0.203-1.356s0.814,2.983,1.458,2.509c0.644-0.441,0.644-0.949,0.644-0.949
			s0.305,0.746,0.576,1.39c-0.509,0.102-0.881,0.203-1.051,0.305c0,0-1.424,2.305-0.373,3.458c1.017,1.153,7.933-2.95,9.595-2.814
			s10.374-1.424,11.256-0.644s0.373,5.492,1.153,6.781s1.932,0.509,1.932,0.881s-1.017,2.17,0.644,2.17c1.356,0,1.865-1.458,2-2
			c-0.068,0.339-0.034,0.949,0.814,0.949c1.153,0,5.255-5.424,6.136-9.052s0-4.645,0.203-5.594c0.203-0.949,2.746-1.661,3.119-1.661
			s0.881,0,0.881,0l-0.712-1.017C334.796,257.041,334.593,254.803,332.491,254.464z M299.91,265.076c0-0.068,0-0.136-0.034-0.203
			c0.034,0.068,0.034,0.136,0.068,0.203C299.944,265.076,299.944,265.076,299.91,265.076z M301.334,264.804
			c0-0.271-0.034-0.441-0.034-0.441s0.068,0.17,0.136,0.407C301.436,264.804,301.402,264.804,301.334,264.804z"/>
		<path fill="#e5e5e5" d="M349.103,218.798c-1.56-0.237-3.255,1.22-3.967,1.22s-1.085-0.203-1.051-0.61
			c0.034-0.407,1.288-1.187,1.288-2.034s-13.731,1.458-14.137,1.729c-0.441,0.271-0.034,0.576,0.576,0.848
			c0.61,0.271,2.136,0.475,2.204,0.644c0.102,0.203-0.61,2.441-0.848,2.644c-0.237,0.203-3.119,1.458-4.306,2.271
			c-1.187,0.814-4.543,1.085-5.085,1.424c0,0-1.051,1.695-0.271,2.543c0.746,0.848,5.831-2.17,7.086-2.068
			c1.254,0.102,7.628-1.051,8.306-0.475c0.644,0.576,0.271,4.068,0.848,4.984c0.576,0.949,1.424,0.373,1.424,0.644
			s-0.746,1.593,0.475,1.593c1.017,0,1.39-1.085,1.492-1.458c-0.034,0.237-0.034,0.712,0.61,0.712c0.848,0,3.865-4.001,4.543-6.679
			c0.644-2.678,0-3.424,0.136-4.136c0.136-0.712,2.034-1.22,2.305-1.22s0.644,0,0.644,0l-0.509-0.746
			C350.798,220.697,350.663,219.036,349.103,218.798z"/>
		<path fill="#e5e5e5" d="M318.455,200.999l2.407,0.136l-0.949-1.322c0,0-0.237-0.407-0.509-1.187
			c-0.271-0.814-2.916-2.407-2.916-2.407c2.271-2,3.865-7.323,3.322-8.476c-0.542-1.153-1.865,2.373-1.865,2.373
			s-0.407-1.593-0.915-2.271s-1.729,2.407-1.729,2.407s0.136-1.322-0.271-2c-0.407-0.678-2.407,1.322-3.729,2.678
			c-1.322,1.322-14.782,8.645-14.782,9.594s3.458,0.271,2.916,1.187c-0.542,0.915-12.375,5.187-15.561,7.459
			c-3.187,2.271-4.916,3.322-4.916,3.322c0.678,1.458,9.188-3.051,9.188-3.051s1.187,0.136,2.678,0.814
			c1.458,0.678,3.594,0.271,3.594,1.051c0,0.814,6.509,10.645,7.73,11.188c1.187,0.542,1.322-0.136,1.322-0.136
			s1.322,1.865,2.136,1.865c0.814,0,1.051-2.78,1.051-2.78s0.136,2.271,1.729,1.865c1.593-0.407,2-7.73,2.136-11.324
			c0.136-3.594-1.051-5.458-1.051-5.458c0.915-0.271,4.509-3.865,5.187-4.272C315.268,201.813,318.455,200.999,318.455,200.999z"/>
		<path fill="#e5e5e5" d="M454.541,203.034c-0.17-0.509-1.831-1.492-1.831-1.492c1.424-1.254,2.407-4.577,2.102-5.323
			c-0.305-0.746-1.153,1.492-1.153,1.492s-0.237-1.017-0.576-1.424c-0.339-0.407-1.085,1.492-1.085,1.492s0.068-0.848-0.169-1.254
			c-0.237-0.407-1.492,0.848-2.339,1.661c-0.848,0.848-9.255,5.424-9.255,6.001s2.17,0.17,1.831,0.746s-7.764,3.255-9.764,4.679
			c-2,1.424-3.085,2.102-3.085,2.102c0.407,0.915,5.763-1.932,5.763-1.932s0.746,0.068,1.661,0.509
			c0.915,0.407,2.238,0.17,2.238,0.678c0,0.509,4.102,6.679,4.848,7.018c0.746,0.339,0.848-0.068,0.848-0.068
			s0.848,1.153,1.322,1.153c0.509,0,0.678-1.763,0.678-1.763s0.068,1.424,1.085,1.153c1.017-0.237,1.254-4.848,1.322-7.086
			c0.068-2.238-0.678-3.424-0.678-3.424c0.576-0.17,2.848-2.407,3.255-2.678c0.407-0.237,2.407-0.746,2.407-0.746l1.492,0.068
			l-0.61-0.848C454.88,203.779,454.71,203.542,454.541,203.034z"/>
		<path fill="#e5e5e5" d="M442.573,286.807c-0.271-0.814-2.916-2.407-2.916-2.407c2.271-2,3.865-7.323,3.322-8.476
			c-0.542-1.153-1.865,2.373-1.865,2.373s-0.407-1.593-0.915-2.271c-0.542-0.678-1.729,2.407-1.729,2.407s0.136-1.322-0.271-2
			c-0.407-0.678-2.407,1.322-3.729,2.678c-1.322,1.322-14.782,8.645-14.782,9.594c0,0.915,3.458,0.271,2.916,1.187
			c-0.542,0.915-12.375,5.187-15.561,7.459c-3.187,2.271-4.916,3.322-4.916,3.322c0.678,1.458,9.188-3.051,9.188-3.051
			s1.187,0.136,2.678,0.814c1.458,0.678,3.594,0.271,3.594,1.051c0,0.814,6.509,10.646,7.73,11.188
			c1.221,0.542,1.322-0.136,1.322-0.136s1.322,1.865,2.136,1.865c0.814,0,1.051-2.78,1.051-2.78s0.136,2.271,1.729,1.865
			s2-7.73,2.136-11.324c0.136-3.594-1.051-5.458-1.051-5.458c0.915-0.271,4.509-3.865,5.187-4.272
			c0.678-0.407,3.865-1.187,3.865-1.187l2.407,0.136l-0.949-1.322C443.082,287.994,442.844,287.621,442.573,286.807z"/>
		<path fill="#e5e5e5" d="M316.251,310.234c-0.203-0.576-2.136-1.763-2.136-1.763c1.661-1.458,2.814-5.323,2.441-6.17
			c-0.373-0.848-1.356,1.729-1.356,1.729s-0.305-1.153-0.678-1.661c-0.373-0.475-1.254,1.763-1.254,1.763s0.102-0.983-0.203-1.458
			c-0.305-0.475-1.763,0.983-2.712,1.932c-0.983,0.983-10.781,6.306-10.781,6.984c0,0.678,2.509,0.203,2.136,0.881
			c-0.373,0.678-9.018,3.797-11.357,5.424c-0.034,0-0.034,0.034-0.068,0.034c-0.102-0.441-0.237-0.949-0.373-1.458
			c-1.187-4.611-2.882-5.662-3.017-6.069c-0.136-0.407,1.322-1.492,1.56-1.627c0.237-0.136,2.034,0.305,1.966,0.068
			s-1.39-1.322-1.39-1.322c-0.915-1.797-2.78-1.085-3.424-0.915c-0.644,0.17-1.153,0.78-3.356,0.949
			c-2.238,0.17-8.34,2.509-10.646,3.831c-2.271,1.322-7.255,3.967-7.255,3.967c-0.644,1.865,3.594,0,4.509-0.237
			c0.915-0.237,4.272-0.848,4.272-0.848s0.305,0.78,0.407,2.102c0.136,1.322,1.627,1.865,1.797,1.966
			c0.169,0.136,0.848,5.424,0.915,5.933c0.068,0.542,0.78,0.237,0.78,0.237l0.373,1.492c-0.068,0.61,0.475,1.56,0.475,1.56
			s0.17,0.61,0.305,1.322c0.136,0.712,1.322-0.305,1.322-0.305s0,2.78,0.644,2.814c0.644,0.068,2.034-3.119,1.932-2.509
			c-0.136,0.61,0.136,1.865,0.136,1.865c1.729-1.187,2.407-9.255,2.407-9.255s1.187,1.017,2.034,1.966
			c0.848,0.949,1.695,0.949,1.695,0.949s0.542,0.407,1.254,0.305c0.712-0.102,0.542-0.644,0.542-0.644s0.17,0.237,0.78-0.237
			c0.441-0.373,0.339-1.797-0.305-4.509c1.458-0.644,2.814-1.356,2.814-1.356s0.881,0.102,1.932,0.576
			c1.051,0.475,2.611,0.203,2.611,0.78s4.746,7.764,5.628,8.137c0.881,0.373,0.983-0.102,0.983-0.102s0.983,1.356,1.56,1.356
			s0.78-2.034,0.78-2.034s0.102,1.661,1.254,1.356c1.153-0.305,1.458-5.628,1.56-8.238c0.102-2.611-0.78-3.967-0.78-3.967
			c0.678-0.203,3.289-2.814,3.797-3.119c0.475-0.305,2.814-0.881,2.814-0.881l1.763,0.102l-0.712-0.983
			C316.624,311.116,316.455,310.811,316.251,310.234z"/>
		<path fill="#e5e5e5" d="M270.889,280.807c1.051-2.17,2.17-2.882,2.678-3.221s2.475,0.305,2.475,0.305l-1.56-1.458
			c0,0-0.915-2.577-2.882-2.577s-5.187,3.017-6.306,2.17c-1.153-0.814-2.271-6.713-3.017-8.069c-0.712-1.356-2.373-3.628-9.12-7.459
			c-6.713-3.831-13.053-7.662-13.663-7.052s2.678,3.119,2.678,3.119s-4.34-1.356-4.34,0c0,1.356,8.577,11.29,9.628,12.273
			c1.051,1.017,2.678,5.526,3.017,6.747c0.305,1.254,1.458,4.238,1.458,4.238s-0.814,0.814-2.373,0.814
			c-1.56,0-10.442-1.661-10.442-1.661s-0.814,2.78-0.915,4.136c-0.102,1.356,1.153,5.696,2.271,5.696
			c1.153,0,4.136-1.153,6.814-1.458c2.678-0.305,4.984-0.305,7.357-0.203c2.373,0.102,8.476-0.915,11.391-1.966
			C268.923,284.231,269.839,282.976,270.889,280.807z"/>
		<path fill="#e5e5e5" d="M216.509,309.658c-0.848-0.915-3.051-1.051-4.475-0.542c-1.458,0.542-2.577,0.542-2.577,0.542
			s-0.373-0.068,0.61-1.356c0.983-1.288,1.22-3.051,1.22-4.645s-0.373-9.493-0.373-9.493s-0.746,1.763-0.678,3.187
			c0,0-1.356-4.102-1.526-3.797c-0.136,0.305-0.068,3.356-0.068,3.356l-1.593-3.492l-0.305,3.255c0,0-1.153-1.899-1.356-1.763
			c-0.237,0.136-0.237,2.339-0.237,2.339s-0.848-0.678-0.983-0.305c-0.136,0.373-0.305,1.831-0.305,1.831s-7.289-11.256-7.899-13.29
			c-0.61-2.034-0.542-2.814-0.983-2.509c-0.441,0.305,0.542,3.492,0.915,4.102c0.373,0.61-0.136,0.915-0.136,0.915
			s-2.746-4.272-3.187-3.865c-0.441,0.373,1.593,3.255,1.593,3.255s-2.577-2.271-2.814-1.661c-0.237,0.61,1.831,2.644,1.831,2.644
			s-2.509-0.983-2.204-0.237c0.305,0.746,1.899,2.441,1.899,2.441s-1.458-0.305-1.288,0.136c0.136,0.441,1.526,1.763,1.526,1.763
			s-1.288,0-0.983,0.915c0.305,0.915,0.678,1.051,0.678,1.051s-0.441,1.458,0.068,2.068c0.542,0.61-0.373,0.983,0.61,1.661
			c0.983,0.678,0.305,2.339,0.848,2.95c0.542,0.61,1.051,1.288,1.051,2.204s0.983,5.153,1.661,6.238
			c0.678,1.051,1.221,1.966,1.221,1.966s-0.068,1.22-2.746,0.542c-2.644-0.678-6.17-2.509-6.306-2.204c0,0-1.153,0.136-1.526,1.051
			c-0.373,0.915-1.458,2.339-1.288,3.255c0.136,0.915,0.848,2.204,2.068,2.882c1.22,0.678,1.763,0.305,2.271,0
			c0.542-0.305,3.119-0.983,4.034-0.915c0.915,0.068,4.17,0,4.543,0.542c0.373,0.542,0.915,0.61,1.593,0.61s1.051-0.678,1.051-0.678
			s4.95-0.136,7.153-1.153c2.204-0.983,5.323-3.729,6.611-3.492c1.288,0.237,2.068,0.848,2.068,0.848l-0.678-1.288
			C217.052,311.556,217.357,310.573,216.509,309.658z"/>
		<path fill="#e5e5e5" d="M492.987,113.259c-0.237-0.203-0.678-0.678-0.915-1.017c-0.271-0.475-0.576-2.204-2.305-2.577
			c-1.729-0.373-3.356,0.475-4.475,1.322c-1.119,0.848-2.95,2.373-3.356,2.204c-0.373-0.203-0.203-6.679-1.051-8.204
			c-0.848-1.526-13.832-11.357-17.562-15.765s-4.78-5.357-4.679-4.475c0.102,0.848,2.305,4.001,2.305,4.001
			s-4.306-3.526-4.475-2.475c-0.203,1.051,1.729,2.678,1.729,2.678s-2.678-0.949-2.102,0c0.576,0.949,1.797,1.797,1.797,1.797
			s0.271,0.78-0.576,0.78c-0.848,0-1.526,0-0.848,0.848c0.678,0.848,3.356,2.475,3.356,2.475s-3.051-0.678-2.373,0.203
			c0.678,0.881,3.526,2.848,3.526,2.848s-1.899-0.271-1.322,0.678c0.576,0.949,2.204,1.627,2.204,1.627s-0.102,1.322,0.78,2.305
			c0.848,0.949,0.848,0.949,0.848,0.949s-0.78,0.576-0.203,2.373c0.576,1.797,1.797,2.204,1.797,2.848
			c0,0.678-0.102,0.203,0.271,2.78c0.373,2.577,0.848,2.78,1.627,4.102c0.78,1.322,2.373,2.848,2.373,4.001
			c0,1.153-3.255,2.78-4.577,2.848c-1.322,0.102-12.137,0.78-12.205,1.424c0,0-0.475,2.204,0.475,2.95
			c0.949,0.746,1.254,0.678,1.254,0.678s0.203,1.153,0.848,1.254c0.678,0.102,0.678,0.102,0.678,0.102s0.78,1.424,1.797,1.899
			c1.017,0.475,8.103-3.255,9.154-3.051c1.051,0.203,1.254,0.475,3.729,0.576c2.475,0.102,3.424,0.102,3.424,0.102
			s1.424,0.102,2.373,0.949c0.949,0.848,1.153,3.051,3.255,4.102s1.153,0.678,3.051,2.305c1.899,1.627,1.526,1.254,3.424,1.627
			c1.899,0.373,2.102-0.576,2.102-0.576s2.102,0.848,2.475,0.102c0.373-0.78,0.678,0.678,1.051-0.102
			c0.373-0.78,0-6.408-1.322-9.154c-1.322-2.78-3.628-4.577-3.628-5.424s1.153-2.475,1.627-4.475c0.475-2,0-2.102,0.949-3.526
			c0.949-1.424,2.102-0.678,2.102-0.678l1.526-0.068C492.987,113.395,493.021,113.293,492.987,113.259z"/>
		<path fill="#e5e5e5" d="M219.798,252.227c-0.102-0.203-0.237-0.881-0.915-1.017c-0.678-0.136-1.322,0.203-1.763,0.542
			c-0.441,0.339-1.153,0.949-1.322,0.881c-0.136-0.068-0.068-2.644-0.407-3.255c-0.339-0.61-5.458-4.475-6.95-6.204
			c-1.458-1.729-1.899-2.102-1.831-1.763c0.034,0.339,0.915,1.593,0.915,1.593s-1.695-1.39-1.763-0.983
			c-0.068,0.407,0.678,1.051,0.678,1.051s-1.051-0.373-0.814,0c0.237,0.373,0.712,0.712,0.712,0.712s0.102,0.305-0.237,0.305
			c-0.339,0-0.61,0-0.339,0.339c0.271,0.339,1.322,0.983,1.322,0.983s-1.22-0.271-0.949,0.068c0.271,0.339,1.39,1.119,1.39,1.119
			s-0.746-0.102-0.542,0.271c0.237,0.373,0.881,0.644,0.881,0.644s-0.034,0.542,0.305,0.915c0.339,0.373,0.339,0.373,0.339,0.373
			s-0.305,0.237-0.068,0.949s0.712,0.881,0.712,1.119s-0.034,0.068,0.102,1.085c0.136,1.017,0.339,1.085,0.644,1.627
			c0.305,0.542,0.949,1.119,0.949,1.593c0,0.475-1.288,1.085-1.797,1.119c-0.542,0.034-4.78,0.305-4.814,0.576
			c0,0-0.203,0.881,0.203,1.153s0.475,0.271,0.475,0.271s0.068,0.441,0.339,0.475c0.271,0.034,0.271,0.034,0.271,0.034
			s0.305,0.576,0.712,0.746c0.407,0.203,3.187-1.288,3.628-1.22c0.407,0.068,0.475,0.203,1.458,0.237
			c0.983,0.034,1.356,0.034,1.356,0.034s0.576,0.034,0.949,0.373c0.373,0.339,0.441,1.22,1.288,1.627
			c0.814,0.407,0.441,0.271,1.22,0.915c0.746,0.644,0.61,0.475,1.356,0.644c0.746,0.136,0.814-0.237,0.814-0.237
			s0.814,0.339,0.983,0.034c0.136-0.305,0.271,0.271,0.407-0.034c0.136-0.305,0-2.509-0.542-3.628
			c-0.542-1.085-1.424-1.797-1.424-2.136c0-0.339,0.441-0.983,0.644-1.763c0.203-0.78,0-0.814,0.373-1.39
			c0.373-0.576,0.814-0.271,0.814-0.271l0.61-0.034c0.034,0,0.034-0.034,0.034-0.068C220.069,252.532,219.9,252.362,219.798,252.227
			z"/>
		<path fill="#e5e5e5" d="M370.394,164.452c0,0-1.526,0-1.424,0.373c0.102,0.373,2.475,3.153,2.475,3.153s-1.322-0.949-1.153-0.102
			c0.17,0.848,3.899,4.78,4.78,6.306c0.848,1.526,1.322,3.255,2.204,4.882c0.848,1.627,3.255,5.153,3.356,5.628
			s-0.203,1.153-4.001-0.203c-3.831-1.322-4.407-1.051-4.407-1.051s-2,0.949-2.102,3.628s-0.271,3.153,0,4.306
			c0.271,1.153,0.949,2.305,2.475,2.102s4.204-2.95,5.73-2.95s5.424,0.203,8.035-1.322c2.577-1.526,7.459-4.001,8.408-6.306
			c0.949-2.305,1.424-4.102,1.899-4.102s1.424,0.203,1.424,0.203l-0.475-1.424c0,0-0.373-1.899-1.322-2.305
			c-0.949-0.373-3.356,0.271-3.899,1.153c-0.576,0.848-1.051,1.627-1.729,1.797c-0.678,0.203,0.373-4.577-0.373-6.679
			c-0.407-1.153-4.509-5.797-8.272-9.696c0.983-0.61,1.899-1.051,2.475-1.051c1.627,0,4.475,0,6.577-0.475
			c2.102-0.475,3.628-1.424,5.357-1.153c1.729,0.271,3.526-1.899,4.679-2.78c1.153-0.848,2.678-2.102,3.424-2.102
			c0.78,0,2.102,0.78,2.102,0.78s-0.78-1.729-1.051-2.305c-0.271-0.576,0-1.424-1.627-1.899s-7.052,1.899-7.526,1.254
			c-0.475-0.678,1.051-8.306,0.576-10.103c-0.475-1.797-13.188-17.663-14.137-18.409c-0.949-0.746-1.322,6.408-0.271,13.086
			c1.051,6.679,1.254,6.577,1.153,9.73c-0.102,3.153-0.373,4.679,0.102,5.933c0.475,1.254-0.102,1.424-0.576,1.729
			c-0.475,0.271-8.476-6.035-9.154-5.052c0,0-0.746,0.576-0.746,1.322c0,0.78-0.848,1.322-0.848,2.678
			c0,1.322-0.78,0.271-0.949,2.577c-0.203,2.305-0.848,2-0.475,3.424c0.17,0.644,0.373,1.458,0.61,2.238
			c-1.458-1.051-2.712-1.865-2.916-1.695c-0.576,0.475,2.78,3.051,2.78,3.051s-3.424-2.305-3.831-1.322
			C367.241,162.181,370.394,164.452,370.394,164.452z"/>
		<path fill="#e5e5e5" d="M310.996,173.335c0,0,0.881,1.153,1.899,1.153s1.153,1.017,2.034,1.017c0.881,0,2.17-0.271,3.424-1.288
			c1.288-1.017,3.051-3.187,4.34-3.187s2.543,0.271,5.73-0.509c3.187-0.78,2.916-1.017,5.865-1.797
			c2.916-0.78,4.441-2.17,5.085-2.814s1.661-3.933,2.916-4.068c1.288-0.136,2.305,0,2.305,0l-0.509-0.78c0,0,0-2.678-2.305-3.56
			c-2.305-0.881-5.357,1.899-6.475,2.407c-1.153,0.509-1.797,0.78-1.899,0.271c-0.136-0.509,1.899-4.204,0.509-10.679
			c-1.39-6.475-6.747-22.41-7.628-21.901c-0.881,0.509-1.017,2.678-1.017,2.678s-1.661-3.594-2.034-2.678s0.373,2.814,0.373,2.814
			s-2.17-2.305-2.305-1.797s1.39,3.56,1.39,3.56s-3.051-1.797-3.051-0.881c0,0.915,1.526,3.322,1.526,3.322s-2.17-0.373-2.034,0.644
			c0.136,1.017,1.153,2.814,1.153,2.814s-0.881-1.288-0.881,0.373s-0.271,6.238-0.271,8.781s1.017,8.272,1.288,8.916
			s-3.424-3.322-3.424-2.678s1.899,3.695,1.899,3.695s-2.407-2.407-2.407-1.661c0,0.78,1.39,2.814,1.39,2.814
			s-1.661-1.899-1.661-1.017s1.017,4.204,3.187,6.374c2.17,2.17,4.34,1.797,4.204,2.407c-0.136,0.644-3.051,0-5.594-0.136
			c-2.543-0.136-2.814-0.78-3.56-0.78c0,0-1.526,0.271-1.797,1.526s-2.034,1.153-2.034,2.305s-1.661,1.661-1.39,2.543
			C309.471,172.453,310.996,173.335,310.996,173.335z"/>
		<path fill="#e5e5e5" d="M488.817,182.251c-1.153-0.509-3.424,0.644-7.492-2.034c-4.068-2.678-10.578-8.544-12.476-9.052
			s-1.899-0.509-1.899-0.509s-0.373-4.204,0.644-4.577c1.017-0.373,2.407,0,2.407,0l-1.153-1.526c0,0-0.271-2.407-2.407-2.407
			c-2.136,0-4.712,2.814-6.103,3.831s-4.95,1.797-6.475,3.187s-4.441,3.424-6.238,4.848c-1.797,1.39-3.187,3.695-5.594,5.357
			c-2.407,1.661-5.458,2.678-3.695,3.695c0,0,0.373,0.271,2.305-0.373c1.899-0.644,4.95-3.322,5.865-3.322
			c0.881,0,1.017,0.271,2.543-0.509c1.526-0.78,2.916-0.271,3.322,0c0.373,0.271,2.034,2.543,3.695,2.678
			c1.661,0.136,1.797,1.254,2.814,1.593c1.017,0.339,1.153,0.848,2.916,0.983c1.797,0.136,2.407,1.39,3.695,1.39
			s2.543,2.17,4.34,1.526s2.543,0.78,5.085,0.509c2.543-0.271,2.17-0.78,3.831-0.644c1.661,0.136,6.984,0.509,6.611,0
			c-0.373-0.509-1.899-1.39-1.526-1.39c0.373,0,4.577,0,3.187-0.78s-2.17-1.017-2.17-1.017S489.969,182.76,488.817,182.251z"/>
		<path fill="#e5e5e5" d="M374.869,255.786c-1.254-0.475-2.136,0.237-2.136,0.237s1.085-2.916-0.542-6.916
			c-1.661-4.001-2.678-5.018-2.678-5.018s-0.068,1.797,0.407,2.746c0.475,0.949-2.577-2.204-2.678-1.729
			c-0.068,0.475,0.407,1.797,0.407,1.797l-2.034-1.187c0,0,0.542,1.017,0.644,1.492c0.068,0.475-2.17-0.407-2.17-0.407
			s-1.153-2.204-4.136-4.95c-2.983-2.746-4.001-5.899-4.475-5.73c-0.475,0.17,1.899,4.475,1.899,4.475s-4.068-3.39-4.001-2.746
			c0.068,0.644,1.899,2.577,1.899,2.577s-2.441-1.424-2.339-0.78c0.068,0.644,2.204,2.746,2.204,2.746s-1.322-0.644-1.322-0.068
			c0,0.542,2.577,5.187,3.289,7.221c0.712,2.034,1.966,8.238,2.577,10.205c0.644,1.966,1.966,3.933,1.966,3.933
			s-0.78,1.322-2.204,1.492c-1.424,0.17-7.628-0.305-7.628,0.17c0,0-0.78,0.475-0.305,1.492s-0.17,1.085,0.475,1.899
			c0.644,0.78,1.899,1.017,1.899,1.017s0.237,1.017,2.814,0.949s5.018-1.729,6.374-1.729s2.204,0.237,4.475-0.949
			c2.271-1.187,1.729-2.271,3.153-2.916c1.424-0.644,2.339-0.848,2.814-2.916c0.475-2.068,0.407-3.458,1.187-3.763
			c0.78-0.305,2.204-0.305,2.204-0.305l-1.187-0.949C375.683,257.176,376.158,256.261,374.869,255.786z"/>
		<path fill="#e5e5e5" d="M402.466,246.497c0.407-0.915,0.407-1.424,0.407-1.424s1.153,3.797,1.424,3.051
			c0.237-0.712,0.237-1.797,0.237-1.797s1.085,3.933,1.932,3.322s0.848-1.254,0.848-1.254s1.254,3.153,1.593,3.085
			c0.203-0.068,0.203-1.085,0.136-1.729c0.407,1.221,1.661,4.034,1.865,3.492c0.237-0.678,0-4.17,0-4.17s1.661,4.746,2,4.34
			c0.339-0.407,0.17-3.763,0.17-3.763s0.576,3.153,1.153,3.255c0.576,0.102,0.678-5.018-0.237-7.187
			c-0.78-1.831-1.085-3.526-1.153-3.865c0.271,0.475,3.526,3.458,2.983,2.034c-0.576-1.492-2.238-3.424-2.238-3.424
			s3.323,3.085,3.594,2.509c0.237-0.576-7.086-9.018-8.34-10.747c-1.254-1.763-1.424-2.238-1.424-2.238s1.085-1.763,2-2.17
			c0.915-0.407,2.407-0.17,2.407-0.17l-0.915-1.322c0,0-0.407-2.238-2.407-2.407c-2-0.17-3.322,1.593-4.679,1.831
			c-1.322,0.237-1.831-0.576-6.001,1.322c-4.17,1.932-8.577,5.323-11.595,5.492c-3.017,0.17-5.763,0.339-5.763,0.339
			s-1.254-0.339-0.678,0.746c0.576,1.085-1.831,1.661-1.661,2.746c0.17,1.085-0.576,1.593,0.339,2.339
			c0.915,0.746,1.661,1.153,3.085,0.509c1.424-0.644,3.424-2.339,4.679-2.339s6.679-0.848,7.187,0
			c0.509,0.848,3.831,4.001,5.085,5.662c1.254,1.661,2.339,3.017,2.407,2.068C400.975,243.717,402.059,247.412,402.466,246.497z"/>
		<path fill="#e5e5e5" d="M408.84,109.123c0.237,0.848-1.39,0.814-1.322,1.288c0.068,0.509,3.187-0.17,3.899,0
			c0.712,0.17,4.577,0.339,7.594-0.509c3.017-0.848,4.509-1.322,5.119-2.339c0.61-1.017,2.102-3.492,2.712-3.661
			c0.61-0.17,1.695-0.17,1.695-0.17l-0.542-1.017c0,0-0.237-1.254-1.322-1.492c-1.085-0.237-3.492,1.695-4.746,1.797
			c-1.254,0.068-1.254-1.695-1.254-2.644c0-0.915,0.237-4.577-1.797-7.153c-2.034-2.577-12.646-13.12-13.12-12.883
			c-0.475,0.237,0.237,1.865,0.237,1.865s-0.78,0.373-0.17,1.627s1.017,4.034,1.017,4.034s-1.627-1.39-1.627-0.78
			c0,0.61,0.373,1.865,0.373,1.865s-1.695-1.492-1.627-0.78c0.068,0.712,1.865,3.424,1.865,4.204s-0.61,1.017-0.475,1.56
			c0.17,0.542,0.848,1.153,1.017,2.339c0.17,1.153,1.797,3.492,2.238,4.272c0.475,0.78,0,3.255,0.305,4.034
			c0.305,0.78,1.254,2.034,1.254,2.034s-10.951,3.729-10.713,4.509c0,0,1.153,0.712,2.407,0.712
			C403.178,111.869,408.603,108.275,408.84,109.123z"/>
		<path fill="#e5e5e5" d="M242.75,221.884c0.644-0.17,1.017-0.237,1.831-1.593c0.78-1.356,1.729-2.238,2.373-3.017
			c0.644-0.78,1.593-0.305,2.543-0.542c0.949-0.237,2.373-0.542,3.56-1.356c1.187-0.78,2.848-1.831,3.899-2.068
			c1.017-0.237,2.238-0.542,3.085-2.373c0.881-1.831,1.661-3.017,2.068-3.322c0.407-0.305,1.661,0.237,1.593-0.237
			c-0.068-0.475-0.881-0.644-0.881-0.644s0.068-0.949-1.729-1.356c-1.831-0.407-4.916,1.831-5.085,1.593
			c-0.17-0.237-0.881-0.712-1.119-2.305c-0.237-1.593-0.542-5.323-2.95-8.238c-0.441-0.542-1.119-1.153-1.899-1.797
			c6.848-5.255,10.205-9.425,10.205-10.544c0,0-3.865,1.593-11.561,0.305c-7.73-1.288-22.172-2.746-41.158,0.475
			c-18.986,3.221-21.223,3.051-36.818,7.56s-18.647,6.442-18.647,6.442s3.39-5.628,22.511-10.306
			c19.121-4.679,46.955-10.917,56.109-10.306c9.154,0.644,26.851,2.238,32.309,1.593s8.849-4.679,8.849-4.679
			s-4.509,0.305-13.493-0.814c-9.018-1.119-42.921-1.119-55.465-0.305c-12.544,0.814-28.953,4.984-33.937,8.51
			c0,0,3.221-5.933,19.46-9.662c16.239-3.695,46.616-4.17,64.788-4.034c18.172,0.136,35.53-4.984,40.344-13.188
			c0,0-10.917,5.933-33.123,6.272c-22.206,0.339-64.788,0.305-68.653,2.577c0,0-1.593-3.051,16.884-4.679s56.584,0.17,72.993-4.984
			c16.409-5.153,16.714-15.595,16.714-15.595s-8.035,5.933-27.021,6.103s-38.276-5.458-48.379-1.932c0,0,3.865-4.984,26.037-3.39
			c22.172,1.593,37.157,3.221,49.023-12.205c0,0-9.323,6.272-16.884,6.916c-7.56,0.644-14.307,0.305-16.884,0.644
			c0,0,1.288-2.882,12.069-3.695c10.781-0.814,18.341-4.679,20.579-9.018c0,0-6.577,2.238-17.697-3.051
			c0,0,14.307-0.475,21.054-9.018c0,0-4.17,2.882-13.188-1.119s-20.409-7.221-27.97-7.086c0,0,3.39-2.746,17.528-1.119
			c14.137,1.593,22.037,3.526,22.037,3.526s-10.137-5.797-21.698-8.204c-11.561-2.407-36.005-1.763-43.26,0.644
			c0,0,2.407-4.509,15.121-5.153c12.714-0.644,23.969-0.17,27.97-0.814c0,0-7.56-0.949-14.646-2.238s-18.986-0.644-26.682,0.814
			c-7.73,1.458-13.188,1.458-13.188,1.458s4.814-3.221,14.782-4.679c9.967-1.458,15.121-2.577,15.121-2.577
			s-5.153-1.763-19.291-1.119s-40.344,6.272-50.481,16.07c0,0,2.238-9.018,15.765-17.833c13.493-8.849,25.732-10.442,25.732-10.442
			s-10.781-0.644-22.681,4.509c-11.9,5.153-18.986,11.9-23.156,16.714c-4.17,4.814-9.493,8.51-9.493,8.51s3.526-9.323,9.662-14.646
			c6.102-5.323,18.172-11.73,19.121-14.002c0,0-30.241,4.17-40.988,36.005c0,0,0.475-17.358,9.493-29.902
			c0,0-17.528,11.73-26.851,45.972c0,0-4.17-4.814,1.119-18.477c5.323-13.663,10.612-21.054,10.612-22.342
			c0-1.288-3.051,3.051-9.493,12.205c-6.442,9.154-9.323,31.021-9.323,31.021s0.102,5.119-3.289,6.814
			c-3.39,1.695-4.712-3.085-4.712-3.085s-2.746-13.358,0-22.817c2.746-9.493,4.34-18.002,4.34-18.002s-2.407,3.695-9.493,8.51
			c-7.086,4.814-11.256,9.967-12.069,15.934c-0.814,5.967,0.305,20.579,1.763,27.665c0,0-4.509-5.153-6.916-14.137
			c-2.407-9.018-3.051-13.019-4.17-14.951c0,0-0.949,3.695-5.458,10.442c-4.509,6.747-6.916,16.545-5.153,24.919
			c1.763,8.374,9.798,21.528,9.798,21.528s-8.204-4.984-12.375-17.833c-4.17-12.849-3.39-21.223-3.39-21.223
			s-4.34,8.679-13.188,17.358c-8.849,8.679-9.154,15.595-8.035,26.546c1.119,10.917,9.493,24.613,9.493,24.613
			s4.611,13.222,4.78,15.595c0.17,2.373-10.408-3.865-10.408-3.865s-9.323-4.984-15.934-18.341
			c-6.577-13.358-6.916-15.121-6.916-15.121s0.305,8.204,1.593,15.765c1.288,7.56,12.069,25.732,17.358,29.597
			c0,0-5.458-0.949-13.663-12.205c-8.204-11.256-6.272-13.493-9.493-18.477c0,0,2.407,6.577,2.102,12.714
			c-0.305,6.103,5.153,28.614,18.341,39.565c0,0-5.933-4.679-15.29-15.29c-9.323-10.612-9.967-17.053-10.917-17.528
			c-0.949-0.475,0.644,4.814,8.679,20.274c8.035,15.426,15.426,21.393,15.426,22.172c0,0.78-6.577-2.746-13.663-14.782
			c-7.086-12.069-11.561-23.63-14.476-23.461c0,0,3.526,4.814,5.933,14.307c2.407,9.493,10.781,26.851,20.579,36.818
			c0,0-9.018-6.103-16.884-20.918c-7.865-14.782-11.73-19.935-11.73-19.935s-0.17,12.205,2.746,18.986
			c2.882,6.747,19.63,21.698,21.054,27.665c0,0-10.917-5.933-17.833-14.477c-6.916-8.51-9.323-11.425-9.323-11.425
			s-1.288,7.221,0.305,24.749c1.593,17.528,18.647,45.498,19.121,47.905c0.475,2.407-3.221,2.102-8.374-2.577
			s-10.917-17.697-10.917-17.697s0.949,7.73,5.933,18.172c4.984,10.442,11.425,16.884,14.002,21.223
			c2.577,4.34,3.051,4.509,1.458,5.323c-1.593,0.814-20.749-16.07-22.817-19.63c0,0,1.593,3.051,6.916,10.781
			c5.323,7.73,25.902,15.595,24.274,22.986c-1.593,7.391-18.816-10.306-22.342-9.967c0,0,11.086,9.662,13.019,12.849
			c1.932,3.221,14.307,8.374,18.341,7.56c0,0-3.051,4.984-14.307,4.17c-11.256-0.814-25.393-11.425-25.393-11.425
			s4.034,9.323,14.646,13.019c10.612,3.695,23.461-3.39,29.089,6.577c0,0-12.205-3.526-19.63-1.458
			c-7.391,2.102-15.934,9.493-22.681,9.323c0,0,3.221,0.949,9.493-1.119c6.272-2.102,14.646-5.153,24.749-3.221
			c10.137,1.932,12.849,5.153,15.934,6.272c0,0-2.238,0.17-11.9-1.119s-13.188,0.169-17.053,3.695s-7.73,7.391-11.73,8.51
			c0,0,4.679-1.119,10.781-4.509c6.103-3.39,13.663-6.916,29.902,0.644c0,0-10.137-2.238-17.833,4.984
			c-6.916,6.475-9.425,13.595-13.459,16.307c1.865-1.051,5.357-3.289,9.628-7.459c6.442-6.272,15.426-8.679,22.037-7.391
			c6.577,1.288,12.544,4.814,13.663,7.086c1.119,2.238,3.526,20.274,6.272,23.969c0,0,3.221-0.644,3.221-1.593
			s-23.156-48.888-18.341-135.713s65.263-137.001,76.214-146.324c10.917-9.323,53.397-28.309,53.397-28.309
			s-9.967,9.018-26.376,16.714c-16.409,7.73-44.074,30.547-71.738,76.858s-32.479,144.053-7.73,215.757c0,0,3.221,0.305,2.882-1.932
			c-0.305-2.238-8.374-19.935-6.747-26.037c1.593-6.103,17.358-3.221,18.986,1.932c0,0-2.882-9.967-17.358-8.035
			c0,0,0-3.221,8.035-3.221s12.849,1.593,12.849,1.593s-1.288-2.882-4.814-3.221c-3.526-0.305-8.679-0.949-13.188-0.644
			c-4.509,0.305-4.509,0.305-4.509,0.305s2.577-8.374,15.121-8.374s19.935,3.526,23.461,3.526c3.526,0,5.933-1.593,5.933-1.593
			s-6.272-0.949-18.477-3.865c-12.205-2.882-19.935-1.288-23.461,3.221c-3.526,4.509-0.305-7.391,8.035-16.409
			c8.34-9.018,26.376-4.17,26.376-4.17s-1.288-2.882-15.765-3.865c-14.477-0.983-21.528,17.358-21.528,17.358
			s3.526-10.612,7.086-16.409c3.526-5.797,5.153-9.967,5.153-9.967s-6.747,5.458-8.679,4.17
			c-1.932-1.288,13.493-12.849,13.493-12.849s-1.932-0.949-7.73,0c-5.797,0.949-11.256,4.509-11.256,1.932
			s15.121-7.391,24.105-8.035c0,0-0.644-2.102-6.103-2.238c-5.458-0.169-16.409,2.882-17.528,1.932
			c-1.119-0.949,1.458-3.695,8.679-5.153c7.221-1.458,16.409-1.593,19.121-3.865c0,0-4.984,0-10.917,0.475
			c-5.933,0.475-16.545,3.526-16.884,1.288c-0.305-2.238,7.73-5.323,17.189-6.272c9.493-0.949,14.137-2.238,16.545-6.272
			c0,0-1.593,0.949-12.544,1.763c-10.917,0.814-7.086-1.458-24.919,8.374c0,0-2.577-1.458,7.865-7.56
			c10.442-6.102,27.326-1.458,33.428-9.154c0,0-6.442,2.746-17.833,2.882s-12.544-0.814-18.647,2.238c0,0,2.238-7.865,13.832-13.358
			c11.595-5.492,35.055-14.307,38.92-23.969c0,0-5.153,5.153-20.749,11.73c-15.595,6.577-23.8,1.763-23.8,1.763
			s19.291-2.407,34.072-9.967c5.594-2.848,11.256-6.611,16.206-10.51c0.542-0.17,0.983-0.339,1.22-0.407
			c0.746-0.203,3.594-0.712,3.594-0.712s0.237,0.644,0.339,1.763c0.102,1.119,1.356,1.56,1.526,1.661
			c0.136,0.102,0.712,4.577,0.746,5.018c0.068,0.441,0.644,0.203,0.644,0.203l0.305,1.254c-0.068,0.509,0.407,1.322,0.407,1.322
			s0.136,0.509,0.237,1.119c0.102,0.61,1.119-0.237,1.119-0.237s0,2.339,0.542,2.373s1.729-2.644,1.627-2.136s0.102,1.56,0.102,1.56
			c1.458-1.017,2.034-7.832,2.034-7.832s1.017,0.848,1.729,1.661c0.712,0.814,1.424,0.814,1.424,0.814s0.441,0.339,1.051,0.271
			c0.61-0.102,0.441-0.542,0.441-0.542s0.136,0.203,0.644-0.203s0.17-2.373-0.848-6.306c-1.017-3.899-2.441-4.78-2.543-5.119
			c-0.102-0.339,1.119-1.254,1.322-1.356c0.203-0.102,1.729,0.237,1.661,0.068s-1.153-1.119-1.153-1.119
			c-0.746-1.526-2.339-0.915-2.882-0.746c-0.542,0.17-0.949,0.644-2.848,0.814c-1.492,0.136-5.052,1.39-7.425,2.475
			c5.458-4.984,9.154-9.764,9.391-12.815c0,0-24.919,20.409-47.125,17.189c0,0-4.17,0.644,7.865-7.086
			c12.069-7.73,31.021-14.002,35.53-14.307c4.509-0.305,21.528-4.814,23.63-8.849c0,0-7.086,2.577-17.189,3.221
			c-10.137,0.644-16.545,1.119-33.767,9.323c0,0,0.644-1.763,10.612-7.086c9.967-5.323,19.765-5.153,31.191-7.391
			c11.425-2.238,15.121-8.51,15.121-8.51s-2.577,2.238-15.765,2.746c-13.188,0.475-35.53,9.154-35.53,9.154
			s-2.102-2.238,8.679-5.933c10.781-3.695,19.935-5.933,29.089-6.577c9.154-0.644,22.986-2.577,24.613-8.035
			c0,0-6.577,1.458-27.326,4.17c-20.749,2.746-22.681,4.679-27.156,3.221c0,0,4.814-5.153,15.934-6.102
			c11.086-0.949,45.023-0.814,51.464-11.425c0,0-20.409,5.458-27.495,4.984c-7.086-0.475-10.781-1.763-10.781-1.763
			s4.679-3.051,20.274-4.679c15.595-1.627,23.8-0.644,37.937-9.018c1.661-0.983,3.221-1.966,4.679-2.916
			c0.136,1.526,1.831,4.407,1.831,7.086c0,2.848,0.949,4.136,0.542,4.611c-0.407,0.475-6.272-3.899-7.459-4.204
			c-1.187-0.305-2.78,5.391-1.729,9.052C238.072,219.205,242.14,222.053,242.75,221.884z M234.173,118.005
			c14.578,0.441,28.953,3.322,33.971,2.882c0,0-3.526,1.39-14.137,0.848c-10.612-0.542-22.817-3.322-33.428-0.848
			C220.544,120.887,219.595,117.565,234.173,118.005z M72.219,157.299c1.017,7.594,3.356,9.798,7.221,16.273
			c3.865,6.475,3.017,10.645,3.017,10.645c-1.288-4.712-5.628-7.696-8.51-15.426C71.066,161.028,72.219,157.299,72.219,157.299z
			 M33.706,284.638c-2.339-4.17-4.204-7.764-4.645-8.577c-0.068-0.102-0.102-0.17-0.102-0.17s4.543,4.814,6.781,8.442
			c2.238,3.628,7.662,9.289,8.713,8.34c1.051-0.949-5.696-8.95-8.238-13.12c-2.543-4.17-1.865-4.95-1.865-4.95
			c2.102,7.594,21.698,23.596,25.664,27.427c3.967,3.831,9.12,8.544,9.12,8.544c-5.662-0.034-22.376-18.782-21.969-16.511
			c0.407,2.238,7.662,9.866,11.493,13.629s8.272,8.645,8.272,8.645s-5.424-1.661-8.713-5.73c-3.289-4.102-6.577-6.442-10.171-9.866
			C44.453,297.249,36.384,289.418,33.706,284.638z M63.235,356.376c-4.577-1.22-11.324-7.967-11.324-7.967
			c0.814,0.814,8.679,3.865,12.544,6.035c3.865,2.17,6.509,5.052,6.509,5.052S67.812,357.563,63.235,356.376z M56.454,335.695
			c-8.679-7.289-10.612-10.917-10.612-10.917c1.39,2.475,9.323,6.645,15.324,10.51c6.001,3.865,10.612,8.238,10.612,8.238
			S65.133,342.984,56.454,335.695z M71.134,259.278c-3.628-2.475-6.34-7.391-6.34-7.391c0.848,0.949,3.763,2.136,6.103,4.068
			c2.373,1.932,5.153,6.543,5.153,6.543S74.762,261.753,71.134,259.278z M74.355,238.259c-6.103-4.916-8.035-9.764-8.035-9.764
			c0.644,1.39,6.442,4.272,9.527,7.73c3.119,3.424,7.086,6.645,7.086,6.645S80.457,243.208,74.355,238.259z M84.492,207.746
			c0,0-3.56-11.493-7.764-18.68c-4.17-7.187-8.137-19.528-6.747-21.63c0,0-1.695,3.322,7.764,18.138
			C87.001,200.016,84.492,207.746,84.492,207.746z M123.853,149.298c-0.203-3.967,0.441-8.137,0.441-8.137
			c-0.305,2.78,1.729,7.594,3.424,12.442c1.729,4.814,2.034,8.238,2.034,8.238C129.21,160.214,124.09,153.264,123.853,149.298z
			 M110.563,267.957c-10.612,7.086-13.934,6.747-13.934,6.747c4.407-1.39,10.171-6.645,18.341-12.985
			c8.137-6.34,15.222-6.442,15.222-6.442C122.022,257.651,121.175,260.872,110.563,267.957z M118.598,244.158
			c-8.577,4.611-10.408,3.119-10.408,3.119c5.696-0.542,11.052-6.645,20.138-10.408c9.12-3.763,12.002-3.221,12.002-3.221
			C137.889,233.749,127.176,239.547,118.598,244.158z"/>
	</g>
</g>
<g>
</g>
<g>
</g>
<g>
</g>
<g>
</g>
<g>
</g>
<g>
</g>
<g>
</g>
<g>
</g>
<g>
</g>
<g>
</g>
<g>
</g>
<g>
</g>
<g>
</g>
<g>
</g>
<g>
</g>
</svg>
