<?xml version="1.0" encoding="utf-8"?>
<!-- Generator: Adobe Illustrator 16.0.0, SVG Export Plug-In . SVG Version: 6.00 Build 0)  -->
<!DOCTYPE svg PUBLIC "-//W3C//DTD SVG 1.1//EN" "http://www.w3.org/Graphics/SVG/1.1/DTD/svg11.dtd" [
	<!ENTITY ns_flows "http://ns.adobe.com/Flows/1.0/">
	<!ENTITY ns_extend "http://ns.adobe.com/Extensibility/1.0/">
	<!ENTITY ns_ai "http://ns.adobe.com/AdobeIllustrator/10.0/">
	<!ENTITY ns_graphs "http://ns.adobe.com/Graphs/1.0/">
]>
<svg fill="#333" version="1.1" id="Layer_1" xmlns:x="&ns_extend;" xmlns:i="&ns_ai;" xmlns:graph="&ns_graphs;"
	 xmlns="http://www.w3.org/2000/svg" xmlns:xlink="http://www.w3.org/1999/xlink" xmlns:a="http://ns.adobe.com/AdobeSVGViewerExtensions/3.0/"
	 x="0px" y="0px" width="864px" height="864px" viewBox="0 0 864 864" enable-background="new 0 0 864 864" xml:space="preserve">
<path fill-rule="evenodd" clip-rule="evenodd" d="M35.492,678.909c14.703-8.984,30.497-16.599,43.868-27.255
	c23.578-18.791,46.67-38.431,68.123-59.583c22.73-22.414,43.323-46.997,64.826-70.653c3.964-4.361,7.122-9.84,11.839-13.065
	c20.02-13.688,25.416-35.321,31.861-56.455c0.73-2.392,1.365-5.466,0.495-7.588c-7.623-18.586,0.758-37.401-1.088-55.861
	c-2.447-24.468,9.722-45.632,13.023-68.705c1.84-12.862,3.655-24.885,12.333-36.602c7.026-9.486,6.227-24.551,9.88-36.849
	c1.702-5.731,5.73-10.771,9.21-17.035c12.912,10.287,7.833,21.96,8.282,32.791c9.526-1.308,18.524-9.611,28.987-0.67
	c-2.72,2.599-5.069,4.73-7.293,6.986c-11.288,11.457-20.056,23.92-22.816,40.631c-1.554,9.406-7.084,18.175-10.978,27.163
	c-1.741,4.017-5.154,7.728-5.599,11.817c-2.55,23.427-4.663,46.911-6.21,70.423c-0.162,2.449,3.935,6.755,6.777,7.52
	c7.672,2.068,7.268,4.8,3.679,10.87c-5.203,8.797-10.13,18.039-13.296,27.707c-9.489,28.974-22.592,55.975-39.91,81.081
	c-4.316,6.255-6.65,13.877-10.816,22.859c30.903-3.116,50.377-18.746,68.639-39.175c6.279,16.688,18.876,12.366,31.303,7.67
	c11.353-4.29,22.874-8.351,33.723-13.724c23.765-11.77,47.088-24.429,70.709-36.495c23.554-12.033,41.701-28.245,48.296-55.408
	c2.931-12.071,8.596-23.489,13.146-35.154c5.39-13.815,1.654-22.711-11.09-30.009c-9.459-5.417-18.146-12.208-27.003-18.626
	c-1.262-0.915-2.422-3.35-2.143-4.792c2.221-11.455-6.622-18.903-9.438-28.208c-3.572-11.803-2.218-25.227-2.141-37.948
	c0.033-5.521,2.729-10.968-5.294-13.371c-1.4-0.42-2.824-5.144-2.197-7.282c6.506-22.187,12.018-44.843,20.923-66.061
	c3.63-8.652,14.096-15.417,22.881-20.629c7.674-4.553,12.985-8.936,16.383-17.701c11.532-29.75,30.594-52.671,64.012-57.936
	c30.335-4.779,56.23,5.725,75.92,28.986c7.023,8.298,14.188,13.125,24.813,14.144c7.148,0.686,14.159,2.806,21.232,4.284
	c0.259,1.322,0.516,2.642,0.774,3.963c-8.192,2.843-16.2,6.564-24.618,8.336c-15.714,3.307-23.35,18.14-17.198,32.976
	c13.452,32.448,26.835,65.388,22.966,101.407c-4.166,38.796-23.94,67.304-61.29,81.996c-0.979,0.386-1.774,1.237-2.604,1.836
	c3.931,17.021,14.004,26.88,30.171,29.428c7.646,1.204,15.326,2.192,23.005,3.169c6.849,0.873,8.581,4.272,6.414,10.796
	c-1.533,4.614-1.607,9.701-2.964,14.395c-0.62,2.147-2.375,4.525-4.29,5.625c-4.132,2.375-8.596,4.288-13.107,5.862
	c-12.932,4.511-24.697,10.021-26.442,25.921c-0.109,1-0.954,1.973-1.612,2.841c-0.395,0.521-1.091,0.812-2.03,1.473
	c-1.181-3.165-2.314-6.204-3.622-9.709c-15.121,5.366-30.157,10.601-45.102,16.082c-3.748,1.375-8.158,2.7-10.634,5.492
	c-12.948,14.607-30.196,20.387-48.184,25.256c-13.062,3.535-13.133,4.319-6.036,18.18c-4.067-0.875-8.179-0.502-9.615-2.283
	c-6.41-7.955-12.486-3.908-19.396-1.025c-87.064,36.317-174.356,72.095-261.21,108.909c-17.074,7.238-31.954,19.557-48.873,27.281
	c-26.693,12.186-51.22,27.481-74.214,45.468c-1.639,1.281-2.551,3.492-3.8,5.271c-14.779,0-29.56,0-44.339,0
	C35.492,699.602,35.492,689.255,35.492,678.909z M500.539,409.09c-5.547,15.554-10.652,29.875-15.741,44.147
	c13.07,5.651,23.485,6.074,35.38-1.613c19.395-12.534,40.03-23.276,60.685-33.701c19.501-9.842,22.892-24.12,8.053-41.539
	c-2.281,1.63-4.394,4.112-6.989,4.821c-9.61,2.625-12.337,8.491-12.611,18.3c-0.288,10.289-7.897,13.45-19.164,12.718
	c-8.034-0.522-16.489,0.535-24.294,2.62C516.117,417.445,507.211,419.956,500.539,409.09z"/>
</svg>
